<svg width="194" height="80" viewBox="0 0 194 80" fill="none" xmlns="http://www.w3.org/2000/svg">
<g clip-path="url(#clip0_17268_4826)">
<path d="M7.33255 28.2842C7.4195 31.734 7.97603 32.8859 8.8398 33.1962C9.57023 33.4648 9.37893 33.5066 10.063 33.5066C10.5383 33.5066 10.7934 33.5961 10.7934 33.8647C10.7934 34.1332 10.405 34.3004 9.80791 34.3004C7.01371 34.3004 6.30067 34.1691 5.48328 34.1691C5.10067 34.1691 4.08618 34.3004 1.84849 34.3004C1.26878 34.3004 0.903564 34.2586 0.903564 33.8647C0.903564 33.5961 1.15864 33.5066 1.58763 33.5066C2.16734 33.5066 1.91226 33.4648 2.51516 33.2857C3.634 32.9276 3.80791 31.6504 3.84849 27.7949L4.2369 1.58177C4.2369 0.692487 4.36443 0.0717773 4.81661 0.0717773C5.26878 0.0717773 5.68038 0.668607 6.41081 1.44449C6.92675 2.04133 13.4601 9.23919 19.7441 15.6611C22.6427 18.6453 28.4746 25.0494 29.205 25.7596H29.4253L28.9615 5.85513C28.9152 3.15146 28.5326 2.30991 27.5007 1.87422C27.1109 1.66227 26.6705 1.56912 26.2311 1.60565C25.7152 1.60565 25.5412 1.47434 25.5412 1.20576C25.5412 0.937187 26.0108 0.811849 26.6601 0.811849C28.8978 0.811849 29.947 0.943154 30.8572 0.943154C31.3268 0.943154 32.1557 0.811849 34.2601 0.811849C34.8398 0.811849 35.2514 0.85363 35.2514 1.20576C35.2514 1.5579 34.9789 1.48628 34.4746 1.60565C34.0804 1.70115 34.5094 1.60565 33.9934 1.73696C32.7934 2.08909 32.4456 3.02015 32.3992 5.503L31.9297 33.4469C31.9297 34.4197 31.7557 34.8136 31.3499 34.8136C30.8746 34.8136 30.3586 34.3302 29.8833 33.8468C27.176 31.1849 21.6688 25.3836 17.1992 20.8238C12.5152 16.0491 7.73835 10.5045 6.96734 9.66892H6.8398L7.33255 28.2842Z" fill="white"/>
<path d="M58.8116 13.6676C58.8116 6.93524 58.8116 5.69381 58.7246 4.27931C58.6435 2.77528 58.7246 2.06505 57.2812 1.7547C56.8636 1.65264 56.4347 1.60848 56.0058 1.62339C55.5304 1.62339 55.2696 1.53386 55.2696 1.2235C55.2696 0.913149 55.5768 0.82959 56.2203 0.82959C58.4985 0.82959 60.4058 0.960895 61.5188 0.960895C62.6319 0.960895 64.6551 0.82959 66.3304 0.82959C66.9101 0.82959 67.2348 0.913149 67.2348 1.2235C67.2348 1.53386 66.9797 1.58161 66.4638 1.62339C66.1779 1.63632 65.8942 1.68033 65.6174 1.7547C64.458 1.97553 64.313 2.72753 64.2319 4.27931C64.1449 5.69381 64.1449 6.93524 64.1449 13.6676V21.8621C64.1449 23.766 64.2725 25.8908 64.2725 28.0991C64.365 30.7525 64.0261 33.4032 63.2696 35.9415C62.3652 38.6452 60.087 41.695 55.9594 44.2972C55.2637 44.7218 54.5457 45.1063 53.8087 45.4491C53.5472 45.6069 53.2533 45.699 52.9507 45.7177C52.9053 45.7177 52.8604 45.7084 52.8185 45.6903C52.7766 45.6722 52.7386 45.6458 52.7068 45.6125C52.675 45.5791 52.6499 45.5396 52.633 45.4962C52.6162 45.4528 52.6079 45.4063 52.6087 45.3596C52.6087 45.1388 52.8174 44.9657 53.5536 44.5658C54.3164 44.1121 55.0098 43.545 55.6116 42.8827C58.8812 39.4748 58.8406 35.0462 58.8406 26.3682L58.8116 13.6676Z" fill="white"/>
<path d="M91.4777 13.6676C91.4777 6.93524 91.4777 5.69381 91.3907 4.27931C91.3037 2.77528 91.0777 2.02328 90.1327 1.79648C89.7588 1.67056 89.3666 1.61201 88.9733 1.62339C88.5443 1.62339 88.2834 1.53387 88.2834 1.18174C88.2834 0.829606 88.6313 0.82959 89.3153 0.82959C90.9501 0.82959 93.0545 0.960895 94.3066 0.960895C95.3791 0.960895 97.3095 0.82959 98.9443 0.82959C99.524 0.82959 99.8487 0.913163 99.8487 1.18174C99.8487 1.45032 99.5878 1.62339 99.1588 1.62339C98.859 1.62921 98.5611 1.67331 98.2719 1.7547C97.1124 1.97553 96.9675 2.72753 96.8806 4.27931C96.7994 5.69381 96.7994 6.93524 96.7994 13.6676V21.4622C96.7994 25.7595 96.7994 29.251 96.9675 31.1608C97.1008 32.3545 97.3965 33.1543 98.7066 33.3274C99.1617 33.4336 99.6257 33.4935 100.092 33.5064C100.562 33.5064 100.782 33.6377 100.782 33.8645C100.782 34.0913 100.434 34.3002 99.9646 34.3002C97.124 34.3002 95.2226 34.1689 94.0632 34.1689C93.0719 34.1689 90.9675 34.3002 89.2516 34.3002C88.6719 34.3002 88.3878 34.1689 88.3878 33.8645C88.3878 33.5601 88.5617 33.5064 89.0776 33.5064C89.471 33.5127 89.8628 33.4522 90.2371 33.3274C91.095 33.1543 91.1472 32.4023 91.2806 31.1131C91.495 29.251 91.495 25.7416 91.495 21.4622L91.4777 13.6676Z" fill="white"/>
<path d="M140.707 33.8586C140.336 33.8288 139.971 33.787 139.687 33.7452C138.394 33.5722 138.139 32.5933 138.011 31.3579C137.797 29.454 137.797 25.5387 137.797 21.4683V3.30657L143.211 3.43787C147.043 3.5274 148.203 4.7688 148.284 5.9207L148.324 6.41011C148.371 7.0726 148.458 7.29343 148.8 7.29343C149.142 7.29343 149.142 7.02486 149.188 6.5832C149.188 5.42533 149.316 2.37549 149.316 1.44442C149.316 0.781934 149.275 0.513359 148.974 0.513359C148.583 0.564657 148.196 0.640399 147.814 0.74016C146.831 0.887938 145.839 0.961741 144.846 0.960986H127.82C126.4 0.960986 124.765 0.871464 123.519 0.74016C122.446 0.650634 122.011 0.208984 121.669 0.208984C121.327 0.208984 121.281 0.471589 121.153 1.04455C121.072 1.40265 120.249 5.42534 120.249 6.14154C120.249 6.62498 120.336 6.84581 120.637 6.84581C120.939 6.84581 121.026 6.67272 121.113 6.32059C121.268 5.76382 121.515 5.23881 121.843 4.76881C122.487 3.79596 123.519 3.57513 126.011 3.47964L132.388 3.30657V21.4623C132.388 25.5328 132.388 29.5554 132.174 31.4116C132.046 32.7008 131.837 33.5662 130.927 33.8527C130.308 33.984 129.676 34.0461 129.043 34.0377C57.7853 35.8282 -0.150967 76.4131 -0.0292274 76.61C-5.18933e-05 76.6587 0.038633 76.7005 0.0843599 76.7329C0.130087 76.7652 0.181857 76.7875 0.236382 76.7981C0.290906 76.8088 0.346985 76.8077 0.401062 76.7948C0.455138 76.782 0.506025 76.7576 0.550483 76.7234C1.03164 76.3952 49.5998 44.0287 127.994 37.9947C151.861 36.1565 166.4 35.6074 166.55 35.6074C166.646 35.6122 166.74 35.5818 166.815 35.5216C166.891 35.4614 166.943 35.3754 166.962 35.2791C167.003 35.1 161.292 33.7631 140.707 33.8586Z" fill="white"/>
<path d="M83.4315 52.9277V59.4511L83.3561 59.3497C81.5822 57.028 79.8779 54.945 78.2431 52.9277H77.0199C77.0547 53.244 77.0663 54.7182 77.0721 61.8802C77.1706 61.8802 77.4547 61.8802 78.359 61.8504C78.359 61.6057 78.359 60.5314 78.3242 55.4165V55.2912L83.5416 61.8564C83.6286 61.8564 83.8895 61.8564 84.7416 61.8564C84.7069 61.54 84.6895 60.0659 84.6895 52.9038C84.271 52.9385 83.8509 52.9465 83.4315 52.9277Z" fill="white"/>
<path d="M86.4122 58.5558C86.3853 59.0067 86.4501 59.4583 86.6025 59.8818C86.7548 60.3054 86.9913 60.6915 87.2968 61.0156C87.6024 61.3398 87.9702 61.5947 88.3769 61.7641C88.7835 61.9335 89.22 62.0137 89.6585 61.9996C90.4929 61.9835 91.3093 61.7472 92.0295 61.3132C91.9774 61.2416 91.873 61.0506 91.5947 60.5314C91.1197 60.8853 90.5463 61.0716 89.96 61.0626C89.7081 61.063 89.4588 61.0102 89.2275 60.9075C88.9961 60.8049 88.7877 60.6545 88.615 60.4657C88.4167 60.2472 88.2631 59.9898 88.1635 59.7088C88.0639 59.4279 88.0203 59.1291 88.0353 58.8304C88.0701 58.7647 88.0759 58.7588 92.215 58.7468C92.2593 57.7912 91.9646 56.8515 91.3861 56.1029C91.1473 55.8537 90.8603 55.659 90.5437 55.5315C90.2271 55.404 89.888 55.3465 89.5484 55.3628C89.1336 55.3399 88.7189 55.4066 88.3306 55.5585C87.9424 55.7104 87.5893 55.9442 87.294 56.2448C86.9987 56.5455 86.7677 56.9064 86.6158 57.3044C86.464 57.7024 86.3946 58.1286 86.4122 58.5558ZM88.5107 56.5565C88.6432 56.4217 88.8009 56.3162 88.9744 56.2464C89.1478 56.1766 89.3333 56.144 89.5194 56.1506C89.675 56.1421 89.8305 56.1681 89.9755 56.2268C90.1205 56.2855 90.2516 56.3755 90.36 56.4908C90.5099 56.6903 90.6191 56.919 90.6809 57.1632C90.7427 57.4073 90.7558 57.6618 90.7194 57.9113C90.6846 57.9769 90.6788 57.9829 88.1455 57.9948C88.1165 57.9948 88.0817 57.774 88.0817 57.774C88.0683 57.3356 88.2223 56.9092 88.5107 56.5863V56.5565Z" fill="white"/>
<path d="M92.8352 55.7028C92.9338 55.9535 93.328 57.0159 95.0787 61.8741C95.4312 61.8382 95.7857 61.8282 96.1396 61.8443C96.1461 61.7797 96.1577 61.7159 96.1743 61.6533C96.6671 60.3044 97.1772 58.9198 97.6642 57.3262V57.2725H97.7164C97.7627 57.2725 97.7917 57.3083 99.3743 61.6413L99.4555 61.8622C99.5483 61.8622 99.8091 61.8622 100.713 61.8622C100.713 61.707 102.627 56.2877 102.876 55.5894C102.731 55.5894 102.4 55.5417 101.589 55.4283C101.569 55.4991 101.546 55.5688 101.519 55.6372C101.096 56.9681 100.661 58.3408 100.25 59.9583C100.239 59.9857 100.226 60.0118 100.209 60.0359C100.163 60.0359 100.119 60.0213 100.082 59.9941C99.5309 58.2692 98.9859 56.8726 98.4526 55.5178C98.0857 55.5381 97.718 55.5381 97.3512 55.5178C97.3377 55.6046 97.3184 55.6904 97.2932 55.7744C96.7946 57.0397 96.2845 58.3468 95.7917 59.9523V60H95.7396C95.6932 59.9702 95.67 59.9583 94.3425 55.6372C94.3425 55.6372 94.2903 55.4641 94.2671 55.3984C93.7976 55.5357 93.3191 55.6374 92.8352 55.7028Z" fill="white"/>
<path d="M107.797 52.9214V61.3249C107.818 61.8648 107.723 62.4028 107.519 62.9005C107.452 63.0211 107.362 63.1266 107.254 63.2106C107.147 63.2947 107.024 63.3557 106.893 63.39C106.893 63.4675 106.893 63.6824 106.893 64.4046C108.435 64.3151 109.38 63.2109 109.38 61.3488V52.8916C109.281 52.9095 108.922 52.9155 107.797 52.9214Z" fill="white"/>
<path d="M111.131 58.5558C111.105 59.0066 111.169 59.4582 111.322 59.8817C111.474 60.3053 111.711 60.6915 112.016 61.0156C112.322 61.3397 112.689 61.5946 113.096 61.764C113.503 61.9334 113.939 62.0137 114.378 61.9995C115.212 61.9834 116.029 61.7471 116.749 61.3132C116.697 61.2415 116.592 61.0505 116.314 60.5313C115.839 60.8852 115.266 61.0715 114.679 61.0625C114.427 61.0629 114.178 61.0101 113.947 60.9075C113.715 60.8048 113.507 60.6545 113.334 60.4656C113.135 60.2479 112.981 59.9906 112.881 59.7095C112.781 59.4283 112.738 59.1292 112.755 58.8303C112.789 58.7647 112.795 58.7587 116.934 58.7468C116.979 57.7911 116.684 56.8515 116.105 56.1028C115.866 55.8613 115.581 55.6734 115.267 55.5512C114.954 55.4289 114.62 55.3749 114.285 55.3925C113.871 55.3674 113.457 55.4314 113.069 55.5803C112.681 55.7293 112.327 55.96 112.03 56.2576C111.733 56.5553 111.5 56.9134 111.345 57.3091C111.191 57.7048 111.118 58.1294 111.131 58.5558ZM114.239 56.1684C114.395 56.1606 114.551 56.1869 114.697 56.2456C114.843 56.3042 114.975 56.3938 115.085 56.5086C115.233 56.7092 115.34 56.9382 115.401 57.1822C115.462 57.4261 115.474 57.68 115.439 57.9291C115.404 57.9947 115.398 58.0007 112.865 58.0127C112.807 57.7604 112.811 57.4976 112.874 57.2469C112.938 56.9963 113.06 56.7654 113.23 56.5743C113.361 56.4363 113.518 56.3275 113.692 56.2546C113.865 56.1817 114.051 56.1463 114.239 56.1505V56.1684Z" fill="white"/>
<path d="M120.424 56.0968V56.1266L120.082 56.6339C119.931 56.6339 119.908 55.6313 119.903 55.488C119.389 55.5271 118.875 55.539 118.36 55.5238C118.389 55.8043 118.407 56.9682 118.407 61.8801C118.552 61.8801 118.929 61.8503 119.943 61.8443C119.943 61.6772 119.943 61.0804 119.914 58.7229C119.914 57.4874 120.378 56.7473 121.149 56.7473C121.421 56.746 121.689 56.818 121.926 56.9562C121.96 56.8667 122.076 56.628 122.505 55.8223C122.208 55.5575 121.836 55.3984 121.445 55.3687C120.963 55.3925 120.627 55.8282 120.424 56.0968Z" fill="white"/>
<path d="M123.391 57.0757C123.391 57.8277 123.837 58.2694 124.55 58.8065L124.846 59.0154C125.362 59.3735 125.849 59.7078 125.849 60.2688C125.848 60.3971 125.821 60.5238 125.769 60.6405C125.717 60.7572 125.642 60.8613 125.549 60.9459C125.455 61.0305 125.345 61.0937 125.226 61.1313C125.106 61.1689 124.981 61.1801 124.857 61.164C124.353 61.1118 123.876 60.9037 123.489 60.5672C123.449 60.6567 123.344 60.8537 123.025 61.3968C123.639 61.7818 124.342 61.9881 125.06 61.9936C126.417 61.9936 127.333 61.0745 127.333 60.2031C127.307 59.817 127.191 59.4431 126.994 59.1135C126.797 58.7839 126.525 58.5086 126.202 58.3112L125.796 58.0187C125.251 57.6307 124.857 57.3502 124.857 56.8847C124.861 56.7769 124.887 56.6711 124.933 56.5738C124.978 56.4766 125.043 56.3901 125.122 56.3196C125.201 56.2491 125.294 56.1961 125.394 56.1639C125.494 56.1318 125.599 56.1212 125.704 56.1327C126.088 56.1548 126.457 56.294 126.765 56.5326C126.805 56.455 126.921 56.27 127.246 55.8044C126.716 55.4947 126.115 55.338 125.507 55.3508C124.295 55.3926 123.391 56.1029 123.391 57.0757Z" fill="white"/>
<path d="M128.475 58.556C128.448 59.0068 128.513 59.4584 128.665 59.882C128.818 60.3055 129.054 60.6917 129.36 61.0158C129.665 61.3399 130.033 61.5948 130.44 61.7642C130.847 61.9337 131.283 62.0139 131.722 61.9998C132.556 61.9842 133.372 61.7478 134.093 61.3134C134.04 61.2418 133.936 61.0508 133.664 60.5315C133.188 60.8843 132.615 61.0705 132.029 61.0627C131.776 61.0636 131.526 61.011 131.293 60.9084C131.061 60.8057 130.852 60.6551 130.678 60.4659C130.478 60.2484 130.324 59.9911 130.224 59.7099C130.124 59.4287 130.082 59.1294 130.098 58.8306C130.127 58.7649 130.133 58.7589 134.272 58.747C134.316 57.7913 134.022 56.8517 133.443 56.103C133.206 55.854 132.92 55.6594 132.604 55.5318C132.288 55.4043 131.95 55.3468 131.611 55.3629C131.197 55.341 130.782 55.4083 130.395 55.5606C130.007 55.7128 129.654 55.9466 129.359 56.2471C129.064 56.5475 128.833 56.9081 128.681 57.3056C128.528 57.7032 128.458 58.129 128.475 58.556ZM130.579 56.5566C130.71 56.4214 130.867 56.3156 131.04 56.2457C131.212 56.1759 131.397 56.1436 131.582 56.1507C131.739 56.143 131.895 56.1693 132.041 56.2279C132.187 56.2865 132.319 56.3761 132.429 56.4909C132.578 56.6909 132.686 56.9199 132.747 57.164C132.807 57.4081 132.82 57.6623 132.782 57.9114C132.748 57.9771 132.742 57.983 130.208 57.995C130.179 57.995 130.145 57.7741 130.145 57.7741C130.133 57.3349 130.289 56.9084 130.579 56.5864V56.5566Z" fill="white"/>
<path d="M134.921 55.691C135.031 55.9417 135.454 56.9563 137.292 61.4983C136.637 63.6946 136.011 64.1184 135.159 64.1184H134.765C134.801 64.4512 134.813 64.7864 134.799 65.1211C134.869 65.1211 135.014 65.1211 135.42 65.0912C137.107 65.0912 137.86 63.3485 138.104 62.7695L141.188 55.6075C141.06 55.6075 140.736 55.5418 139.901 55.3807L139.791 55.7269C139.333 56.9205 138.765 58.4305 138.231 60.1255C138.223 60.1402 138.212 60.1528 138.199 60.1625C138.185 60.1722 138.17 60.1787 138.154 60.1815C138.138 60.1844 138.121 60.1835 138.106 60.179C138.09 60.1745 138.075 60.1664 138.063 60.1554C137.536 58.4126 137.008 56.9623 136.498 55.5597C136.498 55.5597 136.451 55.4225 136.428 55.3628C135.933 55.5059 135.43 55.6156 134.921 55.691Z" fill="white"/>
<path d="M146.098 52.9214V61.874C146.226 61.874 146.597 61.874 147.762 61.8442C147.727 61.5278 147.71 60.0536 147.71 52.8916C147.582 52.9095 147.223 52.9155 146.098 52.9214Z" fill="white"/>
<path d="M151.432 56.2641L151.357 56.3476L151.282 56.2402V55.4882C150.769 55.5269 150.254 55.5389 149.74 55.524C149.74 55.8045 149.786 56.9683 149.786 61.8803C149.931 61.8803 150.308 61.8505 151.328 61.8445C151.328 61.6654 151.328 60.9731 151.293 58.0605C151.272 57.8398 151.296 57.6168 151.365 57.4065C151.434 57.1963 151.546 57.0036 151.693 56.8414C151.84 56.6792 152.019 56.5513 152.218 56.4661C152.417 56.3809 152.631 56.3406 152.847 56.3476C153.716 56.3476 154.192 56.9146 154.192 57.9471V61.8803C154.337 61.8803 154.714 61.8505 155.734 61.8445C155.734 61.6595 155.734 60.9194 155.699 57.7502C155.699 56.1686 154.969 55.3628 153.525 55.3628C153.135 55.3605 152.749 55.4391 152.39 55.5939C152.03 55.7488 151.704 55.9767 151.432 56.2641Z" fill="white"/>
<path d="M157.525 57.0756C157.525 57.8276 157.977 58.2692 158.684 58.8064L158.974 59.0153C159.496 59.3734 159.983 59.7076 159.983 60.2687C159.981 60.3972 159.953 60.524 159.901 60.6408C159.848 60.7575 159.773 60.8615 159.679 60.946C159.584 61.0305 159.474 61.0936 159.355 61.1312C159.235 61.1687 159.109 61.1799 158.985 61.1639C158.482 61.1102 158.005 60.9023 157.617 60.5671C157.479 60.8532 157.325 61.1302 157.154 61.3967C157.767 61.7811 158.47 61.9874 159.188 61.9935C160.551 61.9935 161.461 61.0744 161.461 60.203C161.436 59.8175 161.321 59.4439 161.125 59.1144C160.929 58.7848 160.658 58.5092 160.336 58.311L159.93 58.0186C159.385 57.6306 158.991 57.3501 158.991 56.8846C158.995 56.7773 159.021 56.672 159.066 56.5753C159.111 56.4785 159.175 56.3922 159.254 56.3218C159.333 56.2514 159.424 56.1983 159.524 56.1657C159.623 56.1332 159.728 56.1219 159.832 56.1326C160.218 56.1546 160.589 56.2937 160.898 56.5325C160.939 56.4549 161.055 56.2698 161.38 55.8043C160.85 55.4957 160.249 55.339 159.641 55.3507C158.435 55.3925 157.525 56.1027 157.525 57.0756Z" fill="white"/>
<path d="M163.269 53.9482V55.4343C163.269 55.488 163.217 55.5119 162.353 55.5238C162.381 55.7674 162.392 56.0127 162.388 56.2579C162.463 56.2579 162.643 56.2579 163.182 56.2281C163.246 56.2639 163.257 56.2699 163.269 60.012C163.269 61.331 163.912 61.9995 165.176 61.9995C165.717 61.9963 166.251 61.8657 166.735 61.6175C166.695 61.5399 166.631 61.3549 166.475 60.8953C166.259 61.0562 165.998 61.1381 165.732 61.1281C165.089 61.1281 164.776 60.6029 164.776 59.5167V56.3176C164.776 56.2639 164.822 56.246 166.463 56.2281C166.435 55.9845 166.424 55.7392 166.428 55.494C166.306 55.494 165.959 55.494 164.863 55.5238C164.811 55.5238 164.788 55.4701 164.776 53.5781C164.637 53.602 164.272 53.7154 163.269 53.9482Z" fill="white"/>
<path d="M167.716 53.4885C167.71 53.6777 167.76 53.8643 167.858 54.0239C167.957 54.1836 168.1 54.309 168.269 54.3839C168.438 54.4587 168.624 54.4795 168.805 54.4435C168.985 54.4076 169.151 54.3166 169.281 54.1823C169.41 54.0481 169.498 53.8768 169.531 53.6907C169.565 53.5047 169.544 53.3125 169.47 53.1391C169.396 52.9658 169.273 52.8194 169.118 52.7188C168.962 52.6183 168.78 52.5683 168.597 52.5754C168.363 52.58 168.141 52.6779 167.977 52.8483C167.812 53.0187 167.718 53.2483 167.716 53.4885ZM167.878 55.5237V61.886C168.395 61.8431 168.913 61.8292 169.431 61.8442C169.402 61.5697 169.385 60.3999 169.385 55.4939C169.263 55.5058 168.921 55.5178 167.878 55.5237Z" fill="white"/>
<path d="M171.577 53.9482V55.4343C171.577 55.488 171.525 55.5119 170.661 55.5238C170.689 55.7674 170.701 56.0127 170.696 56.2579C170.771 56.2579 170.951 56.2579 171.49 56.2281C171.554 56.2639 171.566 56.2699 171.577 60.012C171.577 61.331 172.221 61.9995 173.484 61.9995C174.026 61.9963 174.559 61.8657 175.044 61.6175C175.003 61.5399 174.94 61.3549 174.783 60.8953C174.571 61.0635 174.308 61.1463 174.041 61.1281C173.397 61.1281 173.084 60.6029 173.084 59.5167V56.3176C173.113 56.2639 173.131 56.246 174.766 56.2281C174.738 55.9845 174.728 55.7391 174.737 55.494C174.615 55.494 174.267 55.494 173.171 55.5238C173.119 55.5238 173.096 55.4701 173.084 53.5781C172.945 53.602 172.58 53.7154 171.577 53.9482Z" fill="white"/>
<path d="M176.094 55.5239C176.094 55.7149 176.094 56.4549 176.123 59.6182C176.123 61.158 176.853 62.0055 178.169 62.0055C178.54 61.9993 178.905 61.9126 179.24 61.7511C179.576 61.5896 179.875 61.357 180.117 61.0685C180.198 61.0685 180.239 61.0685 180.262 61.8862C180.777 61.847 181.294 61.8351 181.81 61.8504C181.775 61.5758 181.758 60.406 181.758 55.5C181.636 55.5 181.288 55.5 180.21 55.5299L180.25 59.2004C180.25 60.4239 179.555 60.9909 178.9 60.9909C178.094 60.9909 177.63 60.3941 177.63 59.3914V55.506C177.473 55.5119 177.108 55.5179 176.094 55.5239Z" fill="white"/>
<path d="M185.09 53.6794L183.931 53.948V55.4341C183.931 55.4879 183.879 55.5117 183.021 55.5237C183.039 55.768 183.039 56.0134 183.021 56.2578C183.096 56.2578 183.276 56.2578 183.815 56.2279C183.885 56.2637 183.89 56.2697 183.902 60.0119C183.902 61.3309 184.546 61.9993 185.809 61.9993C186.351 61.9962 186.884 61.8655 187.369 61.6174C187.271 61.3816 187.186 61.1405 187.114 60.8952C186.898 61.0595 186.634 61.1418 186.366 61.1279C185.722 61.1279 185.409 60.6027 185.409 59.5165V56.3174C185.438 56.2697 185.456 56.2458 187.09 56.2279C187.066 55.9841 187.056 55.7389 187.061 55.4938C186.94 55.4938 186.592 55.4938 185.496 55.5237C185.432 55.4878 185.427 55.4878 185.409 53.5601C185.308 53.6116 185.201 53.6517 185.09 53.6794Z" fill="white"/>
<path d="M188.203 58.5558C188.177 59.0066 188.241 59.4583 188.394 59.8818C188.546 60.3054 188.783 60.6915 189.088 61.0156C189.394 61.3397 189.761 61.5946 190.168 61.7641C190.575 61.9335 191.011 62.0137 191.45 61.9996C192.284 61.984 193.101 61.7477 193.821 61.3132C193.662 61.0624 193.518 60.8012 193.392 60.5313C192.915 60.8853 192.339 61.0716 191.751 61.0625C191.499 61.0629 191.25 61.0102 191.019 60.9075C190.787 60.8049 190.579 60.6545 190.406 60.4657C190.208 60.2472 190.054 59.9898 189.955 59.7088C189.855 59.4278 189.812 59.1291 189.827 58.8304C189.861 58.7647 189.867 58.7587 194.006 58.7468C194.051 57.7911 193.756 56.8515 193.177 56.1028C192.94 55.8538 192.654 55.6592 192.338 55.5317C192.022 55.4041 191.684 55.3466 191.345 55.3628C190.93 55.34 190.515 55.4066 190.127 55.5585C189.738 55.7103 189.385 55.944 189.089 56.2446C188.793 56.5451 188.562 56.906 188.409 57.304C188.257 57.7019 188.187 58.1283 188.203 58.5558ZM190.302 56.5564C190.434 56.4217 190.592 56.3162 190.766 56.2464C190.939 56.1766 191.125 56.144 191.311 56.1506C191.467 56.1428 191.623 56.1691 191.769 56.2277C191.915 56.2863 192.047 56.376 192.157 56.4908C192.305 56.6914 192.412 56.9204 192.473 57.1643C192.534 57.4082 192.546 57.6622 192.511 57.9112C192.476 57.9709 192.47 57.9829 189.937 57.9948C189.908 57.9948 189.873 57.774 189.873 57.774C189.862 57.336 190.016 56.9105 190.302 56.5863V56.5564Z" fill="white"/>
<path d="M77.3155 73.5663C77.2982 74.2278 77.4731 74.8796 77.8177 75.4382C78.1623 75.9968 78.6611 76.4368 79.25 76.7018C79.839 76.9669 80.4914 77.045 81.1237 76.926C81.756 76.807 82.3395 76.4965 82.7993 76.0341C83.2592 75.5718 83.5746 74.9786 83.7051 74.3306C83.8355 73.6827 83.7752 73.0093 83.5318 72.3968C83.2884 71.7843 82.873 71.2606 82.3387 70.8926C81.8044 70.5247 81.1757 70.3293 80.5329 70.3314C80.1129 70.3169 79.6945 70.39 79.3027 70.5465C78.9109 70.7029 78.554 70.9394 78.2534 71.2416C77.9528 71.5439 77.7147 71.9057 77.5535 72.3052C77.3923 72.7047 77.3114 73.1337 77.3155 73.5663ZM78.9155 73.5663C78.9155 72.3726 79.3445 71.1073 80.5329 71.1073C81.7213 71.1073 82.1619 72.3786 82.1619 73.5663C82.1619 74.3481 82.0054 76.1804 80.5329 76.1804C79.0604 76.1804 78.9213 74.181 78.9213 73.5663H78.9155Z" fill="white"/>
<path d="M85.5589 69.6507V70.3967C85.5299 70.4445 85.5067 70.4683 84.5154 70.4862C84.543 70.7278 84.5527 70.9713 84.5444 71.2144C84.6255 71.2144 84.8284 71.2144 85.4661 71.1845C85.5531 71.2442 85.5589 76.4009 85.5589 76.8366C85.698 76.8366 86.0806 76.8067 87.0951 76.8008C87.0951 76.5919 87.0951 75.6787 87.0603 71.274C87.0603 71.2203 87.1067 71.1965 88.6081 71.1845C88.5907 70.9402 88.5907 70.6948 88.6081 70.4504C88.5038 70.4504 88.2023 70.4504 87.1762 70.4803C87.1125 70.4445 87.1067 70.4385 87.0893 69.3343C87.071 69.202 87.0806 69.0672 87.1174 68.9391C87.1542 68.8109 87.2174 68.6924 87.3026 68.5916C87.3878 68.4908 87.4932 68.4101 87.6114 68.3549C87.7296 68.2998 87.858 68.2715 87.9879 68.272L88.7183 68.3913C88.6661 68.3913 88.6893 68.2481 88.9154 67.5916C88.5114 67.4871 88.0971 67.431 87.6806 67.4245C87.3944 67.4084 87.1081 67.4553 86.8409 67.5621C86.5737 67.6689 86.3316 67.8331 86.1309 68.0437C85.9301 68.2543 85.7753 68.5066 85.6766 68.7837C85.578 69.0608 85.5379 69.3564 85.5589 69.6507Z" fill="white"/>
<path d="M92.8343 67.8844H92.5792C92.5792 67.8844 92.6198 68.8632 92.6198 68.9587C92.7647 68.9587 93.2749 68.9587 95.2633 68.9289C95.3444 68.9885 95.3502 76.2103 95.3502 76.8429C95.4952 76.8429 95.8894 76.8071 96.985 76.8011C96.985 76.8011 96.985 76.2043 96.956 69.0423C97.8757 68.9642 98.7986 68.9343 99.7213 68.9527C99.6803 68.5943 99.6667 68.2331 99.6807 67.8725C99.4488 67.8665 98.3184 67.8725 92.8343 67.8844Z" fill="white"/>
<path d="M99.6005 73.5124C99.5737 73.9632 99.6385 74.4148 99.7908 74.8384C99.9432 75.2619 100.18 75.6481 100.485 75.9722C100.791 76.2963 101.159 76.5512 101.565 76.7207C101.972 76.8901 102.408 76.9703 102.847 76.9562C103.679 76.9427 104.494 76.7084 105.212 76.2758C105.16 76.2041 105.056 76.0132 104.783 75.4939C104.306 75.843 103.734 76.027 103.148 76.0191C102.896 76.0179 102.646 75.9645 102.414 75.8619C102.182 75.7594 101.972 75.6099 101.798 75.4223C101.599 75.2038 101.446 74.9464 101.346 74.6654C101.246 74.3844 101.203 74.0857 101.218 73.787C101.253 73.7213 101.258 73.7094 105.398 73.6974C105.443 72.7425 105.145 71.8038 104.563 71.0594C104.326 70.8089 104.04 70.6132 103.725 70.4856C103.409 70.3579 103.07 70.3013 102.731 70.3193C102.316 70.2964 101.902 70.3631 101.514 70.5151C101.126 70.667 100.773 70.9009 100.478 71.2017C100.184 71.5024 99.9531 71.8634 99.8019 72.2614C99.6507 72.6594 99.5821 73.0855 99.6005 73.5124ZM101.699 71.513C101.831 71.3777 101.989 71.2718 102.162 71.202C102.336 71.1321 102.522 71.0999 102.708 71.1072C102.864 71.0999 103.019 71.127 103.164 71.1867C103.309 71.2464 103.44 71.3373 103.548 71.4533C103.697 71.6522 103.805 71.8801 103.866 72.1233C103.927 72.3664 103.939 72.6197 103.902 72.8678C103.867 72.9335 103.861 72.9395 101.328 72.9514L101.264 72.7306C101.254 72.5071 101.288 72.2839 101.362 72.0739C101.437 71.8639 101.552 71.6712 101.699 71.507V71.513Z" fill="white"/>
<path d="M106.504 73.6674C106.499 74.1187 106.585 74.5662 106.756 74.9815C106.928 75.3968 107.181 75.7709 107.501 76.0801C107.82 76.3893 108.198 76.6268 108.611 76.7775C109.025 76.9283 109.464 76.9891 109.901 76.956C110.496 76.9466 111.08 76.7845 111.6 76.4845C111.559 76.4069 111.484 76.198 111.286 75.631C110.941 75.859 110.538 75.9774 110.127 75.9712C108.927 75.9712 108.121 75.0103 108.121 73.5839C108.092 73.297 108.122 73.007 108.209 72.7329C108.296 72.4587 108.438 72.2066 108.626 71.993C108.815 71.7795 109.045 71.6093 109.301 71.4936C109.558 71.3779 109.835 71.3194 110.115 71.3218C110.493 71.3378 110.865 71.4269 111.211 71.5845C111.211 71.4949 111.31 71.2801 111.559 70.6534C111.062 70.4517 110.534 70.3446 110 70.3371C109.554 70.3035 109.107 70.3646 108.685 70.5166C108.264 70.6686 107.877 70.9081 107.549 71.2205C107.221 71.5328 106.959 71.9112 106.779 72.3321C106.6 72.7531 106.506 73.2076 106.504 73.6674Z" fill="white"/>
<path d="M112.892 67.4309V76.8371C113.037 76.8371 113.413 76.8072 114.428 76.8013C114.428 76.6222 114.428 75.9299 114.393 73.0233C114.371 72.802 114.395 72.5784 114.463 72.3674C114.532 72.1564 114.643 71.963 114.79 71.8002C114.938 71.6373 115.117 71.5088 115.316 71.4233C115.516 71.3378 115.731 71.2972 115.947 71.3044C116.816 71.3044 117.298 71.8714 117.298 72.9039V76.8371C117.442 76.8371 117.819 76.8072 118.834 76.8013C118.834 76.6162 118.834 75.8762 118.799 72.707C118.799 71.1313 118.069 70.3196 116.631 70.3196C116.241 70.3118 115.853 70.3867 115.492 70.5396C115.131 70.6926 114.804 70.9204 114.532 71.2089C114.445 71.2089 114.405 71.2089 114.382 67.3892C114.283 67.413 113.924 67.419 112.892 67.4309Z" fill="white"/>
<path d="M122.336 71.2204L122.26 71.304L122.185 71.1966V70.4445C121.672 70.4875 121.157 70.5014 120.643 70.4863C120.678 70.7609 120.695 71.9247 120.695 76.8367C120.834 76.8367 121.217 76.8068 122.231 76.8008C122.231 76.6218 122.231 75.9295 122.197 73.0229C122.174 72.8016 122.198 72.578 122.267 72.367C122.335 72.156 122.447 71.9626 122.594 71.7997C122.741 71.6369 122.92 71.5084 123.12 71.4229C123.319 71.3373 123.534 71.2968 123.75 71.304C124.62 71.304 125.101 71.871 125.101 72.9035V76.8367C125.24 76.8367 125.623 76.8068 126.637 76.8008C126.637 76.6158 126.637 75.8758 126.602 72.7066C126.602 71.1309 125.872 70.3192 124.434 70.3192C124.043 70.3129 123.655 70.3896 123.294 70.5447C122.933 70.6998 122.607 70.9298 122.336 71.2204Z" fill="white"/>
<path d="M128.144 73.5663C128.127 74.2278 128.302 74.8796 128.646 75.4382C128.991 75.9968 129.49 76.4368 130.079 76.7018C130.668 76.9669 131.32 77.045 131.952 76.926C132.585 76.807 133.168 76.4965 133.628 76.0341C134.088 75.5718 134.403 74.9786 134.534 74.3306C134.664 73.6827 134.604 73.0093 134.361 72.3968C134.117 71.7843 133.702 71.2606 133.167 70.8926C132.633 70.5247 132.004 70.3293 131.362 70.3314C130.942 70.3169 130.523 70.39 130.131 70.5465C129.74 70.7029 129.383 70.9394 129.082 71.2416C128.781 71.5439 128.543 71.9057 128.382 72.3052C128.221 72.7047 128.14 73.1337 128.144 73.5663ZM129.75 73.5663C129.75 72.3726 130.173 71.1073 131.362 71.1073C132.55 71.1073 132.991 72.3786 132.991 73.5663C132.991 74.3481 132.834 76.1804 131.362 76.1804C129.889 76.1804 129.75 74.181 129.75 73.5663Z" fill="white"/>
<path d="M136.132 67.4308V76.8429C136.277 76.8429 136.66 76.8429 137.692 76.8429C137.657 76.5206 137.663 67.4248 137.663 67.4248C137.663 67.4248 137.176 67.4189 136.132 67.4308Z" fill="white"/>
<path d="M139.177 73.5661C139.163 74.2267 139.34 74.8766 139.687 75.4327C140.034 75.9889 140.533 76.4261 141.122 76.6886C141.711 76.9511 142.363 77.0268 142.994 76.9063C143.625 76.7857 144.207 76.4743 144.665 76.0118C145.123 75.5492 145.437 74.9565 145.567 74.3094C145.697 73.6623 145.636 72.99 145.393 72.3785C145.15 71.7669 144.735 71.2439 144.202 70.876C143.669 70.5082 143.042 70.3123 142.4 70.3133C141.978 70.2988 141.558 70.3724 141.165 70.5299C140.771 70.6874 140.413 70.9253 140.112 71.2294C139.811 71.5335 139.572 71.8974 139.412 72.299C139.251 72.7007 139.171 73.1317 139.177 73.5661ZM140.782 73.5661C140.782 72.3724 141.206 71.1071 142.4 71.1071C143.594 71.1071 144.023 72.3784 144.023 73.5661C144.023 74.348 143.866 76.1802 142.4 76.1802C140.933 76.1802 140.782 74.1808 140.782 73.5661Z" fill="white"/>
<path d="M146.818 73.5662C146.818 75.5955 147.897 76.9563 149.508 76.9563C149.892 76.9491 150.269 76.8499 150.609 76.6665C150.949 76.4832 151.243 76.2206 151.468 75.8999C151.578 75.8999 151.595 75.8999 151.653 76.8071C151.653 78.2514 150.882 79.1168 149.595 79.1168C148.835 79.1422 148.083 78.9523 147.421 78.5677C147.355 78.9041 147.266 79.2352 147.155 79.5585C147.975 79.8799 148.845 80.0477 149.723 80.0539C151.004 80.0539 153.155 79.5645 153.155 76.3057V70.4508C153.015 70.4508 152.633 70.4508 151.63 70.4866C151.63 70.5582 151.63 70.7193 151.63 71.1849V71.3102L151.555 71.2147C151.314 70.937 151.021 70.7135 150.693 70.5584C150.364 70.4033 150.008 70.3199 149.647 70.3135C147.908 70.3135 146.818 72.0085 146.818 73.5662ZM148.418 73.5245C148.418 72.0383 148.998 71.1849 150.036 71.1849C151.073 71.1849 151.653 72.3785 151.653 73.4648C151.653 74.6584 151.207 76.1028 149.96 76.1028C148.905 76.1028 148.418 74.7659 148.418 73.5245Z" fill="white"/>
<path d="M154.233 70.6475C154.343 70.8922 154.76 71.9128 156.609 76.4548C155.949 78.6511 155.322 79.0749 154.47 79.0749H154.076C154.113 79.4077 154.124 79.7429 154.111 80.0776C154.18 80.0776 154.325 80.0776 154.731 80.0776C156.412 80.0776 157.172 78.3288 157.415 77.7559C157.415 77.7559 157.415 77.7559 160.499 70.5938C160.366 70.5938 160.047 70.5282 159.206 70.373L159.067 70.7848C158.488 72.2709 158.035 73.5482 157.543 75.1119C157.535 75.1265 157.524 75.1391 157.51 75.1488C157.497 75.1585 157.482 75.165 157.466 75.1679C157.449 75.1707 157.433 75.1698 157.417 75.1653C157.401 75.1608 157.387 75.1527 157.375 75.1417C156.853 73.4109 156.331 71.9785 155.827 70.5879L155.74 70.3491C155.244 70.4822 154.741 70.5819 154.233 70.6475Z" fill="white"/>
</g>
<defs>
<clipPath id="clip0_17268_4826">
<rect width="194" height="80" fill="white"/>
</clipPath>
</defs>
</svg>
