<svg width="190" height="85" viewBox="0 0 190 85" fill="none" xmlns="http://www.w3.org/2000/svg">
<g clip-path="url(#clip0_17346_4167)">
<path d="M138.454 0.151367C138.843 0.151367 139.338 0.640982 140.558 0.740234C141.976 0.885714 143.837 0.985352 145.454 0.985352H164.828C165.958 0.986187 167.087 0.903967 168.206 0.740234C168.64 0.629719 169.08 0.546089 169.525 0.489258C169.868 0.489302 169.914 0.786663 169.914 1.52051C169.914 2.552 169.769 5.93072 169.769 7.21387C169.716 7.70321 169.716 8.00098 169.327 8.00098C168.938 8.00086 168.838 7.7563 168.786 7.02246L168.74 6.48047C168.647 5.20421 167.328 3.82868 162.967 3.72949L156.806 3.58398V23.7061C156.806 28.2159 156.806 32.5546 157.05 34.6641C157.195 36.0326 157.486 37.1167 158.957 37.3086C159.28 37.3549 159.696 37.4015 160.118 37.4346C183.527 37.3288 190.032 38.8078 189.995 39.0078C189.973 39.1145 189.914 39.2106 189.828 39.2773C189.742 39.344 189.634 39.3775 189.526 39.3721C189.334 39.3728 172.793 39.9811 145.651 42.0166C56.443 48.7021 1.17497 84.5631 0.627441 84.9268C0.576885 84.9646 0.518997 84.9916 0.45752 85.0059C0.396056 85.0201 0.331987 85.0216 0.27002 85.0098C0.208117 84.9979 0.149094 84.9733 0.097168 84.9375C0.0453034 84.9017 0.00140643 84.8554 -0.0317383 84.8018C-0.17027 84.5835 65.7578 39.6166 146.845 37.6328C147.565 37.6421 148.284 37.5732 148.989 37.4277C150.024 37.1104 150.263 36.1518 150.408 34.7236C150.652 32.6671 150.652 28.2099 150.652 23.7002V3.58398L143.395 3.77539C140.558 3.88119 139.384 4.12623 138.652 5.2041C138.278 5.7247 137.997 6.30618 137.821 6.92285C137.722 7.313 137.623 7.50488 137.28 7.50488C136.937 7.50486 136.837 7.26022 136.837 6.72461C136.838 5.93029 137.774 1.47386 137.867 1.07715C138.012 0.44284 138.065 0.151588 138.454 0.151367ZM75.4819 0.839844C76.1414 0.839845 76.511 0.932733 76.5112 1.27637C76.5112 1.62023 76.2204 1.67344 75.6333 1.71973C75.3082 1.73407 74.9853 1.78287 74.6704 1.86523C73.3512 2.10992 73.1866 2.94303 73.0942 4.66211C72.9953 6.22933 72.9946 7.6053 72.9946 15.0645V24.1436C72.9946 26.253 73.1401 28.6071 73.1401 31.0537C73.2455 33.9936 72.8594 36.9308 71.9985 39.7432C70.9694 42.7386 68.3769 46.1179 63.6802 49.001C62.8886 49.4713 62.0715 49.8976 61.2329 50.2773C60.9354 50.4521 60.6006 50.5535 60.2563 50.5742C60.2048 50.5742 60.1535 50.5639 60.106 50.5439C60.0584 50.5239 60.0152 50.4949 59.979 50.458C59.9428 50.4211 59.9142 50.3772 59.895 50.3291C59.8759 50.281 59.8668 50.2295 59.8677 50.1777C59.8677 49.9331 60.1051 49.7409 60.9429 49.2979C61.8107 48.7953 62.6 48.1673 63.2847 47.4336C67.0052 43.6577 66.9585 38.7506 66.9585 29.1357L66.9263 15.0645C66.9263 7.6053 66.9256 6.22933 66.8267 4.66211C66.7343 2.99588 66.8266 2.20908 65.1841 1.86523C64.709 1.75221 64.2209 1.70321 63.7329 1.71973C63.1921 1.7197 62.895 1.62019 62.895 1.27637C62.8952 0.93275 63.2451 0.839853 63.9771 0.839844C66.5694 0.839844 68.7397 0.985331 70.0063 0.985352C71.2729 0.985352 73.5755 0.839844 75.4819 0.839844ZM5.48584 0C6.00023 0.000162442 6.46849 0.661171 7.29932 1.52051C7.88643 2.18178 15.3213 10.1572 22.4722 17.2725C25.7701 20.5783 32.405 27.6723 33.2378 28.4609H33.4888L32.9614 6.4082C32.9087 3.41264 32.4726 2.4798 31.2983 1.99707C30.8549 1.76237 30.3539 1.65875 29.854 1.69922C29.2672 1.6992 29.069 1.55411 29.0688 1.25684C29.0688 0.959263 29.6034 0.820312 30.3423 0.820312C32.8886 0.820313 34.083 0.96582 35.1187 0.96582C35.6531 0.965759 36.5966 0.820312 38.9907 0.820312C39.6503 0.820317 40.1187 0.866705 40.1187 1.25684C40.1184 1.64646 39.8084 1.56708 39.2349 1.69922C38.7863 1.80502 39.2741 1.69925 38.687 1.84473C37.3216 2.23489 36.9263 3.26675 36.8735 6.01758L36.3384 36.9785C36.3384 38.0562 36.1408 38.4931 35.6792 38.4932C35.1384 38.4932 34.5511 37.9574 34.0103 37.4219C30.9296 34.4726 24.6628 28.0443 19.5767 22.9922C14.2465 17.702 8.81048 11.5586 7.93311 10.6328H7.7876L8.34912 31.2588C8.44811 35.0806 9.08109 36.3563 10.064 36.7002C10.8951 36.9977 10.6773 37.0449 11.4556 37.0449C11.9965 37.0449 12.2866 37.1438 12.2866 37.4414C12.2865 37.7389 11.8448 37.9238 11.1655 37.9238C7.98628 37.9238 7.17463 37.7784 6.24463 37.7783C5.80924 37.7783 4.65426 37.9238 2.10791 37.9238C1.44842 37.9238 1.03281 37.8777 1.03271 37.4414C1.03271 37.1439 1.32301 37.045 1.81104 37.0449C2.4707 37.0449 2.18067 36.9982 2.8667 36.7998C4.13987 36.403 4.3381 34.9876 4.38428 30.7158L4.82568 1.67285C4.8257 0.687645 4.97132 0 5.48584 0ZM112.593 0.839844C113.253 0.839848 113.623 0.932903 113.623 1.23047C113.622 1.52796 113.325 1.7197 112.837 1.71973C112.496 1.72617 112.157 1.77506 111.828 1.86523C110.509 2.10998 110.344 2.94311 110.245 4.66211C110.152 6.22933 110.153 7.6053 110.153 15.0645V23.7002C110.153 28.4614 110.152 32.3302 110.343 34.4463C110.495 35.7688 110.832 36.6549 112.323 36.8467C112.84 36.9643 113.368 37.0306 113.899 37.0449C114.433 37.0449 114.684 37.1903 114.684 37.4414C114.684 37.6927 114.289 37.9248 113.754 37.9248C110.522 37.9248 108.358 37.7793 107.039 37.7793C105.91 37.7793 103.516 37.9248 101.563 37.9248C100.904 37.9247 100.581 37.7786 100.581 37.4414C100.581 37.1044 100.779 37.0449 101.366 37.0449C101.813 37.0518 102.259 36.985 102.685 36.8467C103.661 36.6549 103.721 35.8216 103.873 34.3936C104.117 32.3304 104.117 28.4415 104.117 23.7002L104.096 15.0645C104.096 7.6053 104.097 6.22933 103.998 4.66211C103.899 2.99587 103.641 2.1624 102.566 1.91113C102.14 1.77169 101.694 1.70711 101.247 1.71973C100.759 1.7197 100.461 1.62049 100.461 1.23047C100.461 0.840318 100.858 0.839844 101.636 0.839844C103.496 0.839857 105.891 0.985352 107.316 0.985352C108.536 0.985343 110.733 0.839844 112.593 0.839844Z" fill="white"/>
</g>
<defs>
<clipPath id="clip0_17346_4167">
<rect width="190" height="85" fill="white"/>
</clipPath>
</defs>
</svg>
