<svg width="92" height="41" viewBox="0 0 92 41" fill="none" xmlns="http://www.w3.org/2000/svg">
<g clip-path="url(#clip0_17355_18741)">
<path d="M4.04044 15.0776C4.08835 16.9212 4.395 17.5368 4.87094 17.7027C5.27341 17.8462 5.168 17.8685 5.54492 17.8685C5.80685 17.8685 5.94739 17.9164 5.94739 18.0599C5.94739 18.2034 5.73338 18.2928 5.40437 18.2928C3.86476 18.2928 3.47187 18.2226 3.02149 18.2226C2.81067 18.2226 2.25168 18.2928 1.01871 18.2928C0.699284 18.2928 0.498047 18.2704 0.498047 18.0599C0.498047 17.9164 0.638595 17.8685 0.874968 17.8685C1.19439 17.8685 1.05384 17.8462 1.38604 17.7505C2.00253 17.5591 2.09835 16.8765 2.12071 14.816L2.33472 0.806986C2.33472 0.331725 2.405 0 2.65415 0C2.9033 0 3.13009 0.318963 3.53256 0.73362C3.81684 1.05259 7.41673 4.89933 10.8793 8.33141C12.4764 9.92625 15.6898 13.3488 16.0922 13.7283H16.2136L15.9581 3.09079C15.9325 1.64587 15.7217 1.19612 15.1531 0.963276C14.9384 0.850008 14.6957 0.800224 14.4536 0.819747C14.1693 0.819747 14.0735 0.74957 14.0735 0.606035C14.0735 0.4625 14.3322 0.395516 14.69 0.395516C15.923 0.395516 16.5011 0.465689 17.0026 0.465689C17.2613 0.465689 17.7181 0.395516 18.8776 0.395516C19.197 0.395516 19.4238 0.417845 19.4238 0.606035C19.4238 0.794226 19.2737 0.755954 18.9958 0.819747C18.7786 0.870782 19.015 0.819748 18.7307 0.88992C18.0695 1.07811 17.8778 1.5757 17.8523 2.9026L17.5935 17.8366C17.5935 18.3565 17.4977 18.5671 17.2741 18.5671C17.0122 18.5671 16.7279 18.3087 16.466 18.0503C14.9743 16.6277 11.9398 13.5274 9.47701 11.0905C6.89608 8.53874 4.26404 5.57555 3.83921 5.12899H3.76893L4.04044 15.0776Z" fill="#CC0000"/>
<path d="M32.4051 7.26625C32.4051 3.66831 32.4052 3.00485 32.3572 2.2489C32.3125 1.44511 32.3572 1.06554 31.5619 0.899678C31.3318 0.845135 31.0955 0.821535 30.8591 0.829505C30.5972 0.829505 30.4535 0.781655 30.4535 0.615793C30.4535 0.44993 30.6228 0.405273 30.9773 0.405273C32.2327 0.405273 33.2836 0.475447 33.8969 0.475447C34.5101 0.475447 35.6249 0.405273 36.5481 0.405273C36.8675 0.405273 37.0464 0.44993 37.0464 0.615793C37.0464 0.781655 36.9058 0.807177 36.6215 0.829505C36.464 0.836413 36.3077 0.859936 36.1552 0.899678C35.5163 1.0177 35.4365 1.41959 35.3917 2.2489C35.3438 3.00485 35.3438 3.66831 35.3438 7.26625V11.6457C35.3438 12.6632 35.4141 13.7987 35.4141 14.9789C35.4651 16.3969 35.2783 17.8135 34.8615 19.1701C34.3632 20.615 33.1079 22.2449 30.8336 23.6356C30.4503 23.8625 30.0546 24.068 29.6485 24.2512C29.5045 24.3356 29.3425 24.3848 29.1758 24.3948C29.1508 24.3948 29.126 24.3898 29.1029 24.3801C29.0798 24.3705 29.0589 24.3563 29.0414 24.3385C29.0238 24.3207 29.01 24.2996 29.0007 24.2764C28.9915 24.2532 28.9869 24.2284 28.9873 24.2034C28.9873 24.0854 29.1023 23.9929 29.508 23.7792C29.9283 23.5367 30.3104 23.2336 30.6419 22.8797C32.4435 21.0584 32.4211 18.6916 32.4211 14.0539L32.4051 7.26625Z" fill="#CC0000"/>
<path d="M50.4046 7.26625C50.4046 3.66831 50.4046 3.00485 50.3566 2.2489C50.3087 1.44511 50.1841 1.04322 49.6635 0.922008C49.4575 0.854715 49.2413 0.823419 49.0246 0.829505C48.7883 0.829505 48.6445 0.781663 48.6445 0.593472C48.6445 0.405282 48.8362 0.405273 49.2131 0.405273C50.1139 0.405273 51.2734 0.475447 51.9633 0.475447C52.5543 0.475447 53.6179 0.405273 54.5187 0.405273C54.8381 0.405273 55.017 0.449937 55.017 0.593472C55.017 0.737008 54.8733 0.829505 54.6369 0.829505C54.4717 0.832612 54.3075 0.856184 54.1482 0.899678C53.5093 1.0177 53.4295 1.41959 53.3816 2.2489C53.3368 3.00485 53.3368 3.66831 53.3368 7.26625V11.432C53.3368 13.7285 53.3368 15.5945 53.4295 16.6152C53.5029 17.2531 53.6659 17.6805 54.3877 17.773C54.6385 17.8298 54.8942 17.8618 55.1512 17.8687C55.4099 17.8687 55.5313 17.9389 55.5313 18.0601C55.5313 18.1813 55.3396 18.2929 55.0809 18.2929C53.5157 18.2929 52.468 18.2228 51.8292 18.2228C51.283 18.2228 50.1235 18.2929 49.178 18.2929C48.8585 18.2929 48.702 18.2228 48.702 18.0601C48.702 17.8974 48.7979 17.8687 49.0821 17.8687C49.2989 17.8721 49.5147 17.8397 49.721 17.773C50.1937 17.6805 50.2225 17.2786 50.2959 16.5897C50.4141 15.5945 50.4141 13.719 50.4141 11.432L50.4046 7.26625Z" fill="#CC0000"/>
<path d="M77.5306 18.0566C77.3262 18.0406 77.125 18.0183 76.9684 17.996C76.2561 17.9035 76.1156 17.3804 76.0453 16.7201C75.9271 15.7026 75.9271 13.6102 75.9271 11.4348V1.72868L78.9105 1.79885C81.0219 1.8467 81.6608 2.51014 81.7055 3.12575L81.7278 3.3873C81.7534 3.74136 81.8013 3.85938 81.9898 3.85938C82.1782 3.85938 82.1782 3.71584 82.2038 3.47981C82.2038 2.86101 82.274 1.23108 82.274 0.733496C82.274 0.379443 82.2517 0.235909 82.0856 0.235909C81.8704 0.263324 81.657 0.303803 81.4467 0.357118C80.9052 0.436095 80.3586 0.475537 79.8113 0.475134H70.4299C69.6473 0.475134 68.7465 0.42729 68.0598 0.357118C67.4688 0.309273 67.2293 0.0732422 67.0408 0.0732422C66.8523 0.0732422 66.8268 0.213586 66.7565 0.519794C66.7118 0.711174 66.2582 2.86101 66.2582 3.24377C66.2582 3.50214 66.3061 3.62015 66.4722 3.62015C66.6383 3.62015 66.6862 3.52765 66.7342 3.33946C66.8194 3.04191 66.9556 2.76133 67.1366 2.51014C67.4912 1.99023 68.0598 1.87221 69.4333 1.82117L72.9469 1.72868V11.4316C72.9469 13.607 72.9469 15.7568 72.8287 16.7488C72.7585 17.4378 72.6435 17.9003 72.142 18.0534C71.8005 18.1236 71.4524 18.1568 71.1039 18.1523C31.8405 19.1092 -0.0825982 40.7989 -0.0155195 40.9042C0.000556346 40.9302 0.0218718 40.9525 0.0470675 40.9698C0.0722632 40.9871 0.100789 40.999 0.130832 41.0047C0.160875 41.0104 0.191775 41.0098 0.221571 41.0029C0.251367 40.9961 0.279406 40.9831 0.303903 40.9648C0.569023 40.7894 27.3302 23.4918 70.5257 20.267C83.6763 19.2846 91.6874 18.9912 91.7705 18.9912C91.823 18.9938 91.8748 18.9775 91.9164 18.9453C91.958 18.9132 91.9866 18.8672 91.9973 18.8157C92.0196 18.72 88.8733 18.0056 77.5306 18.0566Z" fill="#CC0000"/>
</g>
<defs>
<clipPath id="clip0_17355_18741">
<rect width="92" height="41" fill="white"/>
</clipPath>
</defs>
</svg>
